<?xml version="1.0" encoding="UTF-8" standalone="no"?>
<svg width="8px" height="44px" viewBox="0 0 8 44" version="1.1" xmlns="http://www.w3.org/2000/svg" xmlns:xlink="http://www.w3.org/1999/xlink" xmlns:sketch="http://www.bohemiancoding.com/sketch/ns">
    <!-- Generator: Sketch 3.5.1 (25234) - http://www.bohemiancoding.com/sketch -->
    <title>error icon</title>
    <desc>Created with Sketch.</desc>
    <defs></defs>
    <g id="Clyp-3.0" stroke="none" stroke-width="1" fill="none" fill-rule="evenodd" sketch:type="MSPage">
        <g id="homepage" sketch:type="MSArtboardGroup" transform="translate(-717.000000, -374.000000)" fill="#E2665A">
            <g id="upload-modal" sketch:type="MSLayerGroup">
                <g id="Option-B" transform="translate(500.000000, 68.000000)" sketch:type="MSShapeGroup">
                    <g id="upload" transform="translate(21.000000, 127.000000)">
                        <g id="default">
                            <g id="upload-progress" transform="translate(143.000000, 25.000000)">
                                <g id="failed" transform="translate(14.000000, 0.000000)">
                                    <g id="error-icon" transform="translate(39.000000, 154.000000)">
                                        <path d="M3.999991,0 C1.791998,0 0,1.6 0,3.99999 L2.000005,32.00002 L5.999996,32.00002 L8.000002,3.99999 C8.000002,1.6 6.208004,0 3.999991,0 L3.999991,0 Z" id="Path"></path>
                                        <path d="M3.999991,36.00002 C1.791998,36.00002 0,37.60002 0,40.00002 C0,42.00002 1.791998,44.00002 3.999991,44.00002 C6.208004,44.00002 8.000002,42.00002 8.000002,40.00002 C8.000002,37.60002 6.208004,36.00002 3.999991,36.00002 L3.999991,36.00002 Z" id="Path"></path>
                                    </g>
                                </g>
                            </g>
                        </g>
                    </g>
                </g>
            </g>
        </g>
    </g>
</svg>